<svg xmlns="http://www.w3.org/2000/svg" xmlns:xlink="http://www.w3.org/1999/xlink" version="1.1" width="256" height="256" viewBox="0 0 256 256" xml:space="preserve">

<defs>
</defs>
<g style="stroke: none; stroke-width: 0; stroke-dasharray: none; stroke-linecap: butt; stroke-linejoin: miter; stroke-miterlimit: 10; fill: none; fill-rule: nonzero; opacity: 1;" transform="translate(228.51623381289198 69.18131899044741) rotate(105) scale(1.83 1.83)" >
	<path d="M 61.285 71.49 c -7.476 -2.657 -14.47 -6.818 -20.224 -12.241 c -5.755 -5.411 -10.317 -11.99 -13.101 -19.175 c 5.002 5.854 10.299 11.109 16.226 15.419 c 5.894 4.339 12.37 7.701 19.2 10.128 c 5.227 1.86 10.656 3.179 16.207 4.042 c 5.391 -12.935 2.148 -28.649 -8.914 -38.78 C 49.976 11.924 31.778 23.427 11.023 0 C 6.594 29.71 3.592 58.678 25.08 80.166 c 12.986 12.986 33.963 13.11 47.102 0.373 c 1.794 -1.739 3.338 -3.629 4.643 -5.627 C 71.554 74.405 66.315 73.29 61.285 71.49 z" style="stroke: none; stroke-width: 1; stroke-dasharray: none; stroke-linecap: butt; stroke-linejoin: miter; stroke-miterlimit: 10; fill: rgb(255,165,0); fill-rule: nonzero; opacity: 1;" transform=" matrix(1 0 0 1 0 0) " stroke-linecap="round" />
</g>
</svg>

